<svg width="64" height="64" viewBox="0 0 64 64" xmlns="http://www.w3.org/2000/svg" role="img" aria-label="Funeduca">
  <!-- Favicon Funeduca (Brand Manual p.25): isotip del llaç 'ƒ' blanc sobre turquesa -->
  <rect width="64" height="64" rx="12" fill="#81c8ba"/>
  <path fill="#ffffff" d="M37.8 14.4c-3.2-2.1-7.2-1.3-9.3 1.6-1.4 1.9-1.7 4.3-1.5 7.1.1 1.3.4 2.7.7 4.2l-6.2 2.9c-.9.4-1.3 1.5-.9 2.4.4.9 1.5 1.3 2.4.9l5.6-2.6c.6 2.2 1.3 4.5 1.7 6.8.9 4.6.6 8.6-1.3 11.2-1.5 2-3.7 2.7-5.6 1.8-1.6-.8-2.3-2.6-1.8-4.3.4-1.3 1.5-2.3 2.9-2.6.9-.2 1.5-1.1 1.3-2-.2-.9-1.1-1.5-2-1.3-2.7.5-4.9 2.5-5.7 5.1-1 3.4.4 7 3.5 8.5 3.9 1.9 8.3.5 10.9-3 2.7-3.7 3-9 1.9-14.5-.5-2.6-1.3-5.1-1.9-7.5l8.4-3.9c.9-.4 1.3-1.5.9-2.4-.4-.9-1.5-1.3-2.4-.9l-7.8 3.6c-.3-1.4-.5-2.6-.6-3.7-.2-2 .1-3.5.9-4.6 1-1.4 2.8-1.7 4.2-.8 1.2.8 1.7 2.2 1.3 3.5-.2.9.3 1.8 1.2 2 .9.2 1.8-.3 2-1.2.8-2.8-.3-5.7-2.7-7.3z"/>
</svg>
